<svg width="762" height="902" xmlns="http://www.w3.org/2000/svg" xmlns:xlink="http://www.w3.org/1999/xlink" overflow="hidden"><defs><clipPath id="clip0"><rect x="165" y="1341" width="762" height="902"/></clipPath></defs><g clip-path="url(#clip0)" transform="translate(-165 -1341)"><path d="M821.018 1341C853.177 1341 879.299 1350.51 899.384 1369.53 911.339 1380.77 920.305 1396.92 926.283 1417.97L873.74 1430.53C870.632 1416.89 864.146 1406.13 854.283 1398.23 844.42 1390.34 832.435 1386.39 818.328 1386.39 798.841 1386.39 783.031 1393.39 770.896 1407.39 758.762 1421.38 752.695 1444.05 752.695 1475.39 752.695 1508.64 758.672 1532.32 770.627 1546.44 782.583 1560.55 798.124 1567.61 817.252 1567.61 831.359 1567.61 843.494 1563.12 853.655 1554.15 863.817 1545.18 871.11 1531.07 875.533 1511.81L927 1528.13C919.109 1556.84 905.989 1578.16 887.638 1592.1 869.287 1606.03 846.004 1613 817.79 1613 782.881 1613 754.189 1601.07 731.714 1577.21 709.238 1553.34 698 1520.72 698 1479.33 698 1435.55 709.298 1401.55 731.893 1377.33 754.488 1353.11 784.196 1341 821.018 1341Z" fill="#0070C0" fill-rule="evenodd"/><path d="M267.477 1346 323.651 1346 429 1609 371.211 1609 348.239 1549.26 243.069 1549.26 221.353 1609 165 1609 267.477 1346ZM294.936 1407.35 259.401 1504.95 331.189 1504.95 294.936 1407.35Z" fill="#0070C0" fill-rule="evenodd"/><path d="M443 1346 547.984 1346C568.766 1346 584.262 1346.87 594.474 1348.6 604.686 1350.34 613.823 1353.95 621.885 1359.45 629.946 1364.96 636.665 1372.28 642.039 1381.43 647.414 1390.58 650.101 1400.84 650.101 1412.2 650.101 1424.52 646.787 1435.82 640.158 1446.1 633.53 1456.39 624.542 1464.11 613.196 1469.25 629.2 1473.91 641.502 1481.87 650.101 1493.11 658.701 1504.35 663 1517.57 663 1532.76 663 1544.72 660.223 1556.35 654.67 1567.65 649.116 1578.95 641.532 1587.98 631.917 1594.74 622.302 1601.5 610.449 1605.65 596.355 1607.21 587.517 1608.16 566.198 1608.76 532.397 1609L443 1609 443 1346ZM496.029 1389.77 496.029 1450.59 530.785 1450.59C551.447 1450.59 564.287 1450.29 569.303 1449.69 578.38 1448.62 585.517 1445.48 590.712 1440.27 595.907 1435.07 598.505 1428.23 598.505 1419.73 598.505 1411.6 596.266 1404.99 591.787 1399.91 587.308 1394.83 580.649 1391.75 571.811 1390.67 566.556 1390.07 551.447 1389.77 526.485 1389.77L496.029 1389.77ZM496.029 1494.36 496.029 1564.69 545.117 1564.69C564.227 1564.69 576.35 1564.15 581.486 1563.07 589.368 1561.64 595.788 1558.14 600.744 1552.58 605.701 1547.02 608.18 1539.57 608.18 1530.24 608.18 1522.35 606.269 1515.65 602.447 1510.15 598.625 1504.65 593.101 1500.64 585.875 1498.13 578.649 1495.62 562.973 1494.36 538.847 1494.36L496.029 1494.36Z" fill="#0070C0" fill-rule="evenodd"/><path d="M556.5 1632 674 1749.36 615.25 1749.36 615.25 1839.64 674 1839.64 556.5 1957 439 1839.64 497.75 1839.64 497.75 1749.36 439 1749.36 556.5 1632Z" fill="#00B0F0" fill-rule="evenodd"/><path d="M350.932 1974 392 1974 392 2239 341.385 2239 341.385 2048.35C322.892 2065.63 301.098 2078.42 276 2086.7L276 2040.79C289.209 2036.47 303.559 2028.28 319.05 2016.22 334.54 2004.15 345.167 1990.08 350.932 1974Z" fill="#0070C0" fill-rule="evenodd"/><path d="M556.441 1974C582.438 1974 602.863 1981.02 617.718 1995.06 632.572 2009.11 640 2026.57 640 2047.45 640 2059.33 637.874 2070.64 633.621 2081.39 629.368 2092.13 622.629 2103.38 613.405 2115.14 607.296 2122.94 596.274 2134.16 580.341 2148.81 564.408 2163.45 554.315 2173.17 550.062 2177.97 545.809 2182.77 542.365 2187.45 539.73 2192.01L640 2192.01 640 2239 463 2239C464.917 2221.24 470.667 2204.4 480.251 2188.5 489.834 2172.6 508.762 2151.51 537.034 2125.22 559.796 2103.98 573.752 2089.58 578.904 2082.02 585.852 2071.57 589.326 2061.25 589.326 2051.05 589.326 2039.77 586.301 2031.1 580.251 2025.04 574.201 2018.98 565.846 2015.95 555.184 2015.95 544.642 2015.95 536.256 2019.13 530.026 2025.49 523.797 2031.85 520.203 2042.41 519.245 2057.17L468.93 2052.13C471.925 2024.29 481.329 2004.3 497.142 1992.18 512.955 1980.06 532.722 1974 556.441 1974Z" fill="#0070C0" fill-rule="evenodd"/><path d="M758.985 1974C783.779 1974 803.663 1981.91 818.636 1997.72 830.973 2010.66 837.142 2025.27 837.142 2041.56 837.142 2064.69 824.505 2083.13 799.231 2096.91 814.324 2100.14 826.391 2107.39 835.435 2118.65 844.478 2129.91 849 2143.51 849 2159.44 849 2182.56 840.556 2202.27 823.667 2218.56 806.777 2234.85 785.756 2243 760.602 2243 736.766 2243 717.002 2236.14 701.31 2222.43 685.619 2208.71 676.516 2190.77 674 2168.61L722.871 2162.68C724.428 2175.14 728.62 2184.66 735.448 2191.25 742.275 2197.84 750.54 2201.13 760.242 2201.13 770.663 2201.13 779.437 2197.18 786.564 2189.27 793.691 2181.37 797.255 2170.7 797.255 2157.29 797.255 2144.59 793.841 2134.53 787.013 2127.1 780.186 2119.67 771.861 2115.96 762.039 2115.96 755.571 2115.96 747.845 2117.22 738.862 2119.73L744.431 2078.58C758.087 2078.94 768.507 2075.98 775.694 2069.69 782.881 2063.4 786.474 2055.04 786.474 2044.62 786.474 2035.75 783.839 2028.69 778.569 2023.42 773.298 2018.14 766.291 2015.51 757.547 2015.51 748.923 2015.51 741.557 2018.5 735.448 2024.49 729.339 2030.48 725.626 2039.23 724.308 2050.73L677.773 2042.82C681.007 2026.89 685.889 2014.16 692.416 2004.64 698.945 1995.11 708.048 1987.63 719.726 1982.18 731.405 1976.73 744.491 1974 758.985 1974Z" fill="#0070C0" fill-rule="evenodd"/></g></svg>