<svg width="917" height="816" xmlns="http://www.w3.org/2000/svg" xmlns:xlink="http://www.w3.org/1999/xlink" overflow="hidden"><defs><clipPath id="clip0"><rect x="2816" y="200" width="917" height="816"/></clipPath></defs><g clip-path="url(#clip0)" transform="translate(-2816 -200)"><path d="M2916.74 392 3034.75 392C3083.43 392 3124.04 426.486 3133.43 472.33L3133.87 476.613 3515.61 476.613C3581.55 476.613 3635 529.995 3635 595.845L3635 853.768C3635 919.618 3581.55 973 3515.61 973L2935.39 973C2869.45 973 2816 919.618 2816 853.768L2816 628.093 2816 595.845 2816 492.606C2816 437.043 2861.1 392 2916.74 392Z" fill="#BF9000" fill-rule="evenodd"/><rect x="2870" y="452" width="782" height="433" fill="#FFFFFF"/><path d="M3271 200 3272.06 201.059 3272.06 200 3316.38 200 3316.38 245.416 3436 365.132 3353.5 365.132 3353.5 634 3188.5 634 3188.5 365.132 3106 365.132Z" fill="#037B06" fill-rule="evenodd"/><path d="M3483 365 3400.5 365 3400.5 634 3235.5 634 3235.5 365 3153 365 3318 200Z" fill="#05CD0A" fill-rule="evenodd"/><path d="M3700.92 743.365 3700.15 754.834 3696.95 773.779 3700.15 754.835ZM3701.76 730.708 3701.65 732.383 3700.92 743.365 3701.59 733.36 3700.15 754.835 3674.99 903.78 3674.99 903.78 3683.26 854.851 3696.95 773.779 3695.64 781.519 3700.15 754.835 3701.65 732.383 3701.76 730.708ZM3680.76 668.033 3698.64 707.453 3699.06 710.58 3701.76 730.707 3701.76 730.707 3700.23 719.314 3699.06 710.58 3698.64 707.454ZM3006.33 519 3006.33 519 3617.94 519C3667.38 519.001 3709.81 549.065 3727.93 591.912L3733 608.255 3678.27 925.956 3678.27 925.956 3677.87 928.267 3678.27 925.957 3678.3 926.273C3678.3 932.467 3677.65 938.515 3676.41 944.356L3673.6 953.093 3673.6 953.094 3670.98 961.199 3662.86 975.622 3672.43 918.923 3674.99 903.783 3674.99 903.782 3672.43 918.923 3662.86 975.622 3662.86 975.622 3662.86 975.623 3662.4 976.44C3649.01 995.534 3628.19 1009.4 3603.93 1014.18L3585.16 1016 3585.16 1016 3566.39 1014.18 3546.23 1007.49 3541.55 1005.25 3532.87 999.683 3527.43 995.142 3525.8 995.142 3532.87 999.683 3536.86 1003.01 3541.55 1005.25 3543.76 1006.67 3546.23 1007.49 3551.01 1009.78C3555.94 1011.65 3561.08 1013.13 3566.39 1014.18L3585.16 1016 2979.11 1016 2947.51 1010.66C2882.5 999.681 2838.71 938.077 2849.69 873.066L2892.69 618.432C2900.93 569.675 2937.64 532.849 2982.9 522.115L3006.07 519Z" fill="#FFD966" fill-rule="evenodd"/></g></svg>