<svg width="693" height="726" xmlns="http://www.w3.org/2000/svg" xmlns:xlink="http://www.w3.org/1999/xlink" overflow="hidden"><defs><clipPath id="clip0"><rect x="1599" y="290" width="693" height="726"/></clipPath></defs><g clip-path="url(#clip0)" transform="translate(-1599 -290)"><path d="M1672.56 290 2114.9 290 2292 449.3 2292 949.837C2292 986.378 2259.07 1016 2218.45 1016L1672.56 1016C1631.93 1016 1599 986.378 1599 949.837L1599 356.163C1599 319.622 1631.93 290 1672.56 290Z" fill-rule="evenodd"/><rect x="1988" y="373" width="51.0002" height="89"/><path d="M1809 356.5C1809 339.655 1822.66 326 1839.5 326L2051.5 326C2068.34 326 2082 339.655 2082 356.5L2082 478.5C2082 495.345 2068.34 509 2051.5 509L1839.5 509C1822.66 509 1809 495.345 1809 478.5Z" fill="#FFFFFF" fill-rule="evenodd"/><path d="M1666 702.334C1666 675.088 1688.09 653 1715.33 653L2170.67 653C2197.91 653 2220 675.088 2220 702.334L2220 899.667C2220 926.913 2197.91 949 2170.67 949L1715.33 949C1688.09 949 1666 926.913 1666 899.667Z" fill="#FFFFFF" fill-rule="evenodd"/><path d="M2165.91 653 2170.77 653C2197.96 653 2220 675.013 2220 702.167 2220 767.722 2220 833.278 2220 898.833 2220 925.988 2197.96 948 2170.77 948L1715.23 948C1688.04 948 1666 925.987 1666 898.833L1666 890.331 2116.69 890.331C2143.87 890.331 2165.91 868.318 2165.91 841.164L2165.91 653Z" fill="#A6A6A6" fill-rule="evenodd"/><path d="M2041.17 326 2051.52 326C2068.35 326 2082 339.655 2082 356.5L2082 478.5C2082 495.345 2068.35 509 2051.52 509L1839.48 509C1822.65 509 1809 495.345 1809 478.5L1809 472.922 2010.68 472.922C2027.52 472.922 2041.17 459.267 2041.17 442.422L2041.17 326Z" fill="#A6A6A6" fill-rule="evenodd"/></g></svg>