<svg width="811" height="742" xmlns="http://www.w3.org/2000/svg" xmlns:xlink="http://www.w3.org/1999/xlink" overflow="hidden"><defs><clipPath id="clip0"><rect x="2217" y="1365" width="811" height="742"/></clipPath></defs><g clip-path="url(#clip0)" transform="translate(-2217 -1365)"><path d="M2678 1932C2678 1835.35 2756.35 1757 2853 1757 2949.65 1757 3028 1835.35 3028 1932 3028 2028.65 2949.65 2107 2853 2107 2756.35 2107 2678 2028.65 2678 1932ZM2743.42 1932C2743.42 1992.52 2792.48 2041.58 2853 2041.58 2913.52 2041.58 2962.59 1992.52 2962.59 1932 2962.59 1871.48 2913.52 1822.41 2853 1822.41 2792.48 1822.41 2743.42 1871.48 2743.42 1932Z" fill-rule="evenodd"/><path d="M2220 1932C2220 1835.35 2298.57 1757 2395.5 1757 2492.43 1757 2571 1835.35 2571 1932 2571 2028.65 2492.43 2107 2395.5 2107 2298.57 2107 2220 2028.65 2220 1932ZM2285.41 1932C2285.41 1992.52 2334.7 2041.58 2395.5 2041.58 2456.3 2041.58 2505.59 1992.52 2505.59 1932 2505.59 1871.48 2456.3 1822.41 2395.5 1822.41 2334.7 1822.41 2285.41 1871.48 2285.41 1932Z" fill-rule="evenodd"/><rect x="2395" y="1757" width="453" height="63.9999"/><path d="M2675 1868.5C2675 1771.57 2753.57 1693 2850.5 1693 2947.43 1693 3026 1771.57 3026 1868.5 3026 1965.43 2947.43 2044 2850.5 2044 2753.57 2044 2675 1965.43 2675 1868.5ZM2740.6 1868.5C2740.6 1929.2 2789.8 1978.4 2850.5 1978.4 2911.2 1978.4 2960.4 1929.2 2960.4 1868.5 2960.4 1807.8 2911.2 1758.6 2850.5 1758.6 2789.8 1758.6 2740.6 1807.8 2740.6 1868.5Z" fill="#3B3838" fill-rule="evenodd"/><path d="M2217 1868.5C2217 1771.57 2295.57 1693 2392.5 1693 2489.43 1693 2568 1771.57 2568 1868.5 2568 1965.43 2489.43 2044 2392.5 2044 2295.57 2044 2217 1965.43 2217 1868.5ZM2282.6 1868.5C2282.6 1929.2 2331.8 1978.4 2392.5 1978.4 2453.2 1978.4 2502.4 1929.2 2502.4 1868.5 2502.4 1807.8 2453.2 1758.6 2392.5 1758.6 2331.8 1758.6 2282.6 1807.8 2282.6 1868.5Z" fill="#3B3838" fill-rule="evenodd"/><rect x="2393" y="1693" width="452" height="63.9999" fill="#3B3838"/><path d="M2502.42 1365.95 2770.68 1372.01 2632.2 1601.85Z" fill="#FF0000" fill-rule="evenodd"/><path d="M2739.52 1371.31 2770.68 1372.01 2632.2 1601.85 2616.83 1573.91Z" fill="#9E0000" fill-rule="evenodd"/></g></svg>