<svg width="762" height="799" xmlns="http://www.w3.org/2000/svg" xmlns:xlink="http://www.w3.org/1999/xlink" xml:space="preserve" overflow="hidden"><defs><clipPath id="clip0"><rect x="1790" y="607" width="762" height="799"/></clipPath></defs><g clip-path="url(#clip0)" transform="translate(-1790 -607)"><path d="M1881.5 607C1907.73 607 1929 628.363 1929 654.716L1929 994.265 1887.64 1007.16C1874.45 1012.77 1861.92 1019.62 1850.18 1027.59L1834 1041 1834 654.716C1834 628.363 1855.27 607 1881.5 607Z" fill-rule="evenodd"/><path d="M2497.42 696.492C2509.52 694.748 2522.28 697.617 2532.84 705.515 2553.97 721.309 2558.28 751.231 2542.48 772.349L2317.59 1073 2302.65 1054.9C2292.62 1044.87 2281.63 1035.8 2269.84 1027.83L2243 1013.27 2466 715.154C2473.9 704.595 2485.33 698.237 2497.42 696.492Z" fill-rule="evenodd"/><path d="M1984.5 1017 2135.5 1017C2242.92 1017 2330 1104.08 2330 1211.5L2330 1369.98C2330 1389.87 2313.87 1406 2293.98 1406L1826.02 1406C1806.13 1406 1790 1389.87 1790 1369.98L1790 1211.5C1790 1104.08 1877.08 1017 1984.5 1017ZM1881.67 1158.24C1864.97 1158.24 1851.44 1171.78 1851.44 1188.48L1851.44 1269.46C1851.44 1286.16 1864.97 1299.69 1881.67 1299.69 1898.37 1299.69 1911.9 1286.16 1911.9 1269.46L1911.9 1188.48C1911.9 1171.78 1898.37 1158.24 1881.67 1158.24ZM2238.98 1158.24C2222.28 1158.24 2208.74 1171.78 2208.74 1188.48L2208.74 1269.46C2208.74 1286.16 2222.28 1299.69 2238.98 1299.69 2255.67 1299.69 2269.21 1286.16 2269.21 1269.46L2269.21 1188.48C2269.21 1171.78 2255.67 1158.24 2238.98 1158.24ZM2019.05 1284.38C2015.53 1284.38 2012.67 1287.23 2012.67 1290.76L2012.67 1338.46C2012.67 1341.99 2015.53 1344.84 2019.05 1344.84L2044.59 1344.84C2048.11 1344.84 2050.97 1341.99 2050.97 1338.46L2050.97 1290.76C2050.97 1287.23 2048.11 1284.38 2044.59 1284.38L2019.05 1284.38ZM2075.41 1284.38C2071.89 1284.38 2069.03 1287.23 2069.03 1290.76L2069.03 1338.46C2069.03 1341.99 2071.89 1344.84 2075.41 1344.84L2100.95 1344.84C2104.47 1344.84 2107.33 1341.99 2107.33 1338.46L2107.33 1290.76C2107.33 1287.23 2104.47 1284.38 2100.95 1284.38L2075.41 1284.38Z" fill-rule="evenodd"/></g></svg>