<svg width="2245" height="1742" xmlns="http://www.w3.org/2000/svg" xmlns:xlink="http://www.w3.org/1999/xlink" xml:space="preserve" overflow="hidden"><defs><clipPath id="clip0"><rect x="861" y="286" width="2245" height="1742"/></clipPath></defs><g clip-path="url(#clip0)" transform="translate(-861 -286)"><path d="M1351 1600 861 1153.5 1351 707Z" fill-rule="evenodd"/><path d="M1703 833.615 2257.49 416.981 2990.23 782.545 2990.84 1476.12 2436.35 1892.76 1703.61 1527.19Z" stroke="#000000" stroke-width="100.833" stroke-miterlimit="8" fill="none" fill-rule="evenodd"/><path d="M2276.09 439.714 2444.24 1945.39" stroke="#000000" stroke-width="100.833" stroke-miterlimit="8" fill="none" fill-rule="evenodd"/><path d="M0 0 817.409 1272.24" stroke="#000000" stroke-width="100.833" stroke-miterlimit="8" fill="none" fill-rule="evenodd" transform="matrix(-0.89482 -0.446427 -0.446427 0.89482 2960.89 781.363)"/><path d="M0 0 1560.95 0.000721785" stroke="#000000" stroke-width="100.833" stroke-miterlimit="8" fill="none" fill-rule="evenodd" transform="matrix(0.89482 0.446427 0.446427 -0.89482 1657.91 811.119)"/><path d="M2221.83 1092.46C2256.3 1023.38 2340.24 995.313 2409.33 1029.78 2478.41 1064.25 2506.47 1148.19 2472.01 1217.27 2437.54 1286.36 2353.6 1314.42 2284.51 1279.95 2215.43 1245.49 2187.37 1161.54 2221.83 1092.46Z" fill-rule="evenodd"/><path d="M2311.5 1825.21C2345.97 1756.13 2429.91 1728.07 2499 1762.53 2568.08 1797 2596.14 1880.94 2561.68 1950.03 2527.21 2019.11 2443.27 2047.17 2374.18 2012.71 2305.1 1978.24 2277.04 1894.3 2311.5 1825.21Z" fill-rule="evenodd"/><path d="M2836.64 1398.89C2871.11 1329.8 2955.05 1301.74 3024.14 1336.21 3093.22 1370.67 3121.28 1454.62 3086.82 1523.7 3052.35 1592.78 2968.41 1620.85 2899.32 1586.38 2830.24 1551.92 2802.18 1467.97 2836.64 1398.89Z" fill-rule="evenodd"/><path d="M2829.9 707.888C2864.36 638.804 2948.31 610.741 3017.39 645.207 3086.48 679.673 3114.54 763.617 3080.07 832.7 3045.61 901.784 2961.66 929.848 2892.58 895.382 2823.5 860.915 2795.43 776.972 2829.9 707.888Z" fill-rule="evenodd"/><path d="M2140.59 363.991C2175.06 294.907 2259 266.844 2328.09 301.31 2397.17 335.776 2425.23 419.72 2390.77 488.804 2356.3 557.888 2272.36 585.951 2203.27 551.485 2134.19 517.019 2106.13 433.075 2140.59 363.991Z" fill-rule="evenodd"/><path d="M1594.47 779.168C1628.94 710.084 1712.88 682.021 1781.97 716.487 1851.05 750.953 1879.11 834.896 1844.65 903.98 1810.18 973.064 1726.24 1001.13 1657.15 966.661 1588.07 932.195 1560.01 848.252 1594.47 779.168Z" fill-rule="evenodd"/><path d="M1575.78 1463.11C1610.24 1394.03 1694.19 1365.97 1763.27 1400.43 1832.36 1434.9 1860.42 1518.84 1825.95 1587.92 1791.49 1657.01 1707.54 1685.07 1638.46 1650.61 1569.38 1616.14 1541.31 1532.2 1575.78 1463.11Z" fill-rule="evenodd"/></g></svg>