<svg width="984" height="865" xmlns="http://www.w3.org/2000/svg" xmlns:xlink="http://www.w3.org/1999/xlink" overflow="hidden"><defs><clipPath id="clip0"><rect x="236" y="223" width="984" height="865"/></clipPath></defs><g clip-path="url(#clip0)" transform="translate(-236 -223)"><path d="M780.047 223.063C933.722 220.446 1080.82 300.149 1161.02 437.538 1259.73 606.631 1232.5 820.925 1094.62 959.97 956.746 1099.02 742.625 1128.13 572.608 1030.94L638.525 915.71C756.356 983.065 904.755 962.888 1000.31 866.521 1095.87 770.154 1114.74 621.636 1046.33 504.444 977.915 387.252 839.278 330.62 708.342 366.38 610.139 393.2 534.641 466.972 503.324 559.424L494.335 595.486 650.886 595.486 443.443 965.789 236 595.486 359.2 595.486 360.392 585.623C387.314 420.834 508.036 283.476 673.345 238.329 708.769 228.654 744.583 223.667 780.047 223.063Z" fill-rule="evenodd"/></g></svg>