<svg width="837" height="847" xmlns="http://www.w3.org/2000/svg" xmlns:xlink="http://www.w3.org/1999/xlink" overflow="hidden"><defs><clipPath id="clip0"><rect x="2888" y="1405" width="837" height="847"/></clipPath></defs><g clip-path="url(#clip0)" transform="translate(-2888 -1405)"><path d="M3307.88 1678.61C3225.05 1678.61 3157.91 1745.72 3157.91 1828.5 3157.91 1911.28 3225.05 1978.39 3307.88 1978.39 3390.71 1978.39 3457.85 1911.28 3457.85 1828.5 3457.85 1745.72 3390.71 1678.61 3307.88 1678.61ZM3213.13 1405 3408.15 1405 3448.19 1565.06 3472.5 1578.25 3624.71 1534.74 3722.22 1703.54 3606.97 1814.91 3607.82 1828.5 3607.03 1844.24 3725 1958.24 3627.49 2127.04 3467.7 2081.35 3441.81 2095.4 3402.63 2252 3207.61 2252 3167.57 2091.94 3141.35 2077.71 2985.51 2122.26 2888 1953.46 3008.47 1837.04 3007.93 1828.5 3009.23 1807.89 2896.3 1698.76 2993.82 1529.96 3149.98 1574.61 3173.95 1561.6Z" fill-rule="evenodd"/></g></svg>