<svg width="899" height="777" xmlns="http://www.w3.org/2000/svg" xmlns:xlink="http://www.w3.org/1999/xlink" overflow="hidden"><defs><clipPath id="clip0"><rect x="2859" y="246" width="899" height="777"/></clipPath></defs><g clip-path="url(#clip0)" transform="translate(-2859 -246)"><path d="M3473.15 603.93 3473.15 973.87 3708.85 973.87 3708.85 603.93ZM2908.15 484.696 2908.15 973.87 3143.92 973.87 3143.92 484.696ZM3190.58 295.13 3190.58 438.066 3190.73 438.066 3190.73 973.87 3426.27 973.87 3426.27 557.3 3426.5 557.3 3426.5 295.13ZM3143.92 248.5 3473.15 248.5 3473.15 557.3 3755.5 557.3 3755.5 1020.5 3473.15 1020.5 3426.27 1020.5 3190.73 1020.5 3143.92 1020.5 2861.5 1020.5 2861.5 438.066 3143.92 438.066Z" stroke="#000000" stroke-width="4.58333" stroke-miterlimit="8" fill-rule="evenodd"/></g></svg>